<?xml version="1.0" standalone="no"?>
<!DOCTYPE svg PUBLIC "-//W3C//DTD SVG 20010904//EN"
 "http://www.w3.org/TR/2001/REC-SVG-20010904/DTD/svg10.dtd">
<svg version="1.0" xmlns="http://www.w3.org/2000/svg"
 width="2000.000000pt" height="1500.000000pt" viewBox="0 0 2000.000000 1500.000000"
 preserveAspectRatio="xMidYMid meet">

<g transform="translate(0.000000,1500.000000) scale(0.100000,-0.100000)"
fill="#000000" stroke="none">
<path d="M11486 12170 c-483 -38 -947 -144 -1384 -316 -610 -241 -1139 -592
-1612 -1068 l-145 -146 153 0 153 0 127 118 c339 313 715 569 1117 763 1142
548 2467 582 3640 95 1389 -578 2411 -1854 2669 -3334 51 -289 60 -413 60
-777 0 -364 -9 -488 -60 -777 -178 -1019 -725 -1965 -1524 -2634 -1104 -924
-2557 -1256 -3960 -904 -300 75 -563 172 -855 315 -407 200 -749 435 -1085
746 l-128 119 -154 0 -153 0 145 -146 c474 -477 1003 -827 1615 -1069 957
-378 2025 -427 3021 -139 772 223 1478 648 2044 1231 729 750 1171 1684 1297
2741 22 185 25 800 5 987 -93 871 -406 1663 -931 2359 -304 405 -694 770
-1131 1061 -643 427 -1324 673 -2105 761 -163 18 -658 27 -819 14z"/>
<path d="M6060 10015 c-259 -44 -601 -168 -655 -239 -45 -59 -22 -130 49 -152
41 -13 132 -84 168 -132 44 -57 127 -208 164 -294 114 -268 269 -838 494
-1818 259 -1125 496 -1935 665 -2270 70 -138 151 -163 237 -72 46 48 308 442
431 647 245 412 500 896 681 1297 105 233 119 258 142 258 25 0 43 -59 125
-410 182 -772 317 -1230 455 -1549 90 -209 154 -301 210 -301 28 0 120 75 193
156 227 254 701 1121 1024 1875 342 796 603 1563 707 2079 56 277 73 418 74
620 2 266 -12 289 -180 310 -166 21 -381 -16 -631 -106 -175 -63 -243 -95
-344 -162 -106 -69 -134 -105 -126 -165 4 -34 13 -48 48 -77 88 -72 182 -167
219 -220 249 -366 241 -912 -26 -1707 -133 -396 -191 -542 -325 -810 -140
-281 -172 -334 -218 -358 -72 -37 -113 17 -190 251 -132 399 -237 836 -465
1934 -182 880 -227 1077 -291 1277 -42 135 -89 159 -295 150 -222 -10 -541
-88 -660 -162 -55 -35 -75 -62 -75 -105 0 -34 8 -46 73 -111 60 -60 82 -92
127 -183 100 -205 271 -776 320 -1075 48 -287 -22 -580 -288 -1202 -218 -511
-338 -739 -408 -775 -26 -13 -36 -13 -60 -4 -40 17 -61 55 -112 210 -114 343
-271 984 -492 2015 -151 702 -228 993 -322 1217 -48 116 -77 150 -141 168 -49
13 -209 11 -302 -5z"/>
<path d="M12445 9979 c-177 -12 -430 -44 -584 -74 -231 -45 -479 -124 -516
-165 -28 -30 -21 -63 33 -173 114 -228 141 -432 163 -1242 27 -1010 -42 -2706
-125 -3080 -8 -33 -22 -90 -31 -128 -17 -63 -17 -68 -1 -86 24 -27 55 -30 178
-20 143 13 283 49 387 100 118 58 224 163 275 274 21 44 43 91 50 105 21 44
39 35 78 -42 104 -202 280 -316 583 -374 127 -25 432 -25 570 0 368 66 668
252 851 526 124 187 209 399 246 615 17 103 20 147 15 310 -9 321 -80 558
-237 800 -148 227 -430 406 -748 475 -123 27 -149 66 -60 90 222 60 344 116
455 208 214 180 332 482 336 862 1 100 -4 143 -22 215 -71 279 -278 518 -553
637 -170 73 -401 134 -621 163 -130 17 -495 19 -722 4z m605 -474 c243 -55
395 -202 446 -433 23 -103 15 -361 -15 -479 -65 -260 -211 -422 -462 -514 -94
-34 -208 -59 -274 -59 -63 0 -99 -34 -125 -118 -25 -80 -39 -286 -22 -318 10
-19 24 -21 182 -28 304 -11 509 -50 630 -118 91 -52 208 -178 262 -283 88
-171 128 -344 128 -549 0 -322 -86 -562 -265 -742 -106 -108 -210 -142 -333
-110 -106 27 -171 83 -224 191 -35 71 -48 124 -61 255 l-12 115 -39 19 c-30
15 -61 19 -137 19 -94 0 -103 -2 -174 -37 -57 -28 -88 -52 -132 -102 -90 -102
-87 -120 -73 432 6 258 11 793 11 1189 -2 905 13 1268 64 1529 22 114 54 142
179 156 112 13 361 5 446 -15z"/>
</g>
</svg>
