<svg xmlns="http://www.w3.org/2000/svg" width="2666.6667" height="2000" version="1.0" viewBox="0 0 2000 1500"><path d="M1148.6 283c-48.3 3.8-94.7 14.4-138.4 31.6-61 24.1-113.9 59.2-161.2 106.8L834.5 436h30.6l12.7-11.8c33.9-31.3 71.5-56.9 111.7-76.3 114.2-54.8 246.7-58.2 364-9.5 138.9 57.8 241.1 185.4 266.9 333.4 5.1 28.9 6 41.3 6 77.7 0 36.4-.9 48.8-6 77.7-17.8 101.9-72.5 196.5-152.4 263.4-110.4 92.4-255.7 125.6-396 90.4-30-7.5-56.3-17.2-85.5-31.5-40.7-20-74.9-43.5-108.5-74.6l-12.8-11.9H834.5l14.5 14.6c47.4 47.7 100.3 82.7 161.5 106.9 95.7 37.8 202.5 42.7 302.1 13.9 77.2-22.3 147.8-64.8 204.4-123.1 72.9-75 117.1-168.4 129.7-274.1 2.2-18.5 2.5-80 .5-98.7-9.3-87.1-40.6-166.3-93.1-235.9-30.4-40.5-69.4-77-113.1-106.1-64.3-42.7-132.4-67.3-210.5-76.1-16.3-1.8-65.8-2.7-81.9-1.4z"/><path d="M606 498.5c-25.9 4.4-60.1 16.8-65.5 23.9-4.5 5.9-2.2 13 4.9 15.2 4.1 1.3 13.2 8.4 16.8 13.2 4.4 5.7 12.7 20.8 16.4 29.4C590 607 605.5 664 628 762c25.9 112.5 49.6 193.5 66.5 227 7 13.8 15.1 16.3 23.7 7.2 4.6-4.8 30.8-44.2 43.1-64.7 24.5-41.2 50-89.6 68.1-129.7 10.5-23.3 11.9-25.8 14.2-25.8 2.5 0 4.3 5.9 12.5 41 18.2 77.2 31.7 123 45.5 154.9 9 20.9 15.4 30.1 21 30.1 2.8 0 12-7.5 19.3-15.6 22.7-25.4 70.1-112.1 102.4-187.5 34.2-79.6 60.3-156.3 70.7-207.9 5.6-27.7 7.3-41.8 7.4-62 .2-26.6-1.2-28.9-18-31-16.6-2.1-38.1 1.6-63.1 10.6-17.5 6.3-24.3 9.5-34.4 16.2-10.6 6.9-13.4 10.5-12.6 16.5.4 3.4 1.3 4.8 4.8 7.7 8.8 7.2 18.2 16.7 21.9 22 24.9 36.6 24.1 91.2-2.6 170.7-13.3 39.6-19.1 54.2-32.5 81-14 28.1-17.2 33.4-21.8 35.8-7.2 3.7-11.3-1.7-19-25.1-13.2-39.9-23.7-83.6-46.5-193.4-18.2-88-22.7-107.7-29.1-127.7-4.2-13.5-8.9-15.9-29.5-15-22.2 1-54.1 8.8-66 16.2-5.5 3.5-7.5 6.2-7.5 10.5 0 3.4.8 4.6 7.3 11.1 6 6 8.2 9.2 12.7 18.3 10 20.5 27.1 77.6 32 107.5 4.8 28.7-2.2 58-28.8 120.2-21.8 51.1-33.8 73.9-40.8 77.5-2.6 1.3-3.6 1.3-6 .4-4-1.7-6.1-5.5-11.2-21-11.4-34.3-27.1-98.4-49.2-201.5-15.1-70.2-22.8-99.3-32.2-121.7-4.8-11.6-7.7-15-14.1-16.8-4.9-1.3-20.9-1.1-30.2.5zM1244.5 502.1c-17.7 1.2-43 4.4-58.4 7.4-23.1 4.5-47.9 12.4-51.6 16.5-2.8 3-2.1 6.3 3.3 17.3 11.4 22.8 14.1 43.2 16.3 124.2 2.7 101-4.2 270.6-12.5 308-.8 3.3-2.2 9-3.1 12.8-1.7 6.3-1.7 6.8-.1 8.6 2.4 2.7 5.5 3 17.8 2 14.3-1.3 28.3-4.9 38.7-10 11.8-5.8 22.4-16.3 27.5-27.4 2.1-4.4 4.3-9.1 5-10.5 2.1-4.4 3.9-3.5 7.8 4.2 10.4 20.2 28 31.6 58.3 37.4 12.7 2.5 43.2 2.5 57 0 36.8-6.6 66.8-25.2 85.1-52.6 12.4-18.7 20.9-39.9 24.6-61.5 1.7-10.3 2-14.7 1.5-31-.9-32.1-8-55.8-23.7-80-14.8-22.7-43-40.6-74.8-47.5-12.3-2.7-14.9-6.6-6-9 22.2-6 34.4-11.6 45.5-20.8 21.4-18 33.2-48.2 33.6-86.2.1-10-.4-14.3-2.2-21.5-7.1-27.9-27.8-51.8-55.3-63.7-17-7.3-40.1-13.4-62.1-16.3-13-1.7-49.5-1.9-72.2-.4zm60.5 47.4c24.3 5.5 39.5 20.2 44.6 43.3 2.3 10.3 1.5 36.1-1.5 47.9-6.5 26-21.1 42.2-46.2 51.4-9.4 3.4-20.8 5.9-27.4 5.9-6.3 0-9.9 3.4-12.5 11.8-2.5 8-3.9 28.6-2.2 31.8 1 1.9 2.4 2.1 18.2 2.8 30.4 1.1 50.9 5 63 11.8 9.1 5.2 20.8 17.8 26.2 28.3 8.8 17.1 12.8 34.4 12.8 54.9 0 32.2-8.6 56.2-26.5 74.2-10.6 10.8-21 14.2-33.3 11-10.6-2.7-17.1-8.3-22.4-19.1-3.5-7.1-4.8-12.4-6.1-25.5l-1.2-11.5-3.9-1.9c-3-1.5-6.1-1.9-13.7-1.9-9.4 0-10.3.2-17.4 3.7-5.7 2.8-8.8 5.2-13.2 10.2-9 10.2-8.7 12-7.3-43.2.6-25.8 1.1-79.3 1.1-118.9-.2-90.5 1.3-126.8 6.4-152.9 2.2-11.4 5.4-14.2 17.9-15.6 11.2-1.3 36.1-.5 44.6 1.5z"/></svg>